<svg width="23" height="24" viewBox="0 0 23 24" fill="none" xmlns="http://www.w3.org/2000/svg">
<ellipse cx="11.5" cy="11.5101" rx="11.5" ry="11.5018" fill="#CA0100"/>
<path d="M11.5 6.00928C8.46718 6.00928 6 8.47683 6 11.5101C6 14.5434 8.46718 17.011 11.5 17.011C14.5328 17.011 17 14.5434 17 11.5101C17 8.47683 14.5328 6.00928 11.5 6.00928ZM14.1157 14.3554C14.0263 14.4448 13.909 14.4898 13.7917 14.4898C13.6744 14.4898 13.557 14.4448 13.4677 14.3554L11.176 12.0634C11.0898 11.9777 11.0417 11.8612 11.0417 11.7393V8.7597C11.0417 8.50621 11.247 8.30132 11.5 8.30132C11.753 8.30132 11.9583 8.50621 11.9583 8.7597V11.5496L14.1157 13.7072C14.2949 13.8865 14.2949 14.1762 14.1157 14.3554Z" fill="white"/>
</svg>
