<svg width="23" height="24" viewBox="0 0 23 24" fill="none" xmlns="http://www.w3.org/2000/svg">
<ellipse cx="11.5" cy="11.5164" rx="11.5" ry="11.5018" fill="#CA0100"/>
<g clip-path="url(#clip0_2878_22845)">
<path d="M11.4994 6.01562C9.30274 6.01562 7.51562 7.80301 7.51562 10C7.51562 12.7265 11.0807 16.7292 11.2325 16.8983C11.3751 17.0571 11.624 17.0568 11.7663 16.8983C11.9181 16.7292 15.4832 12.7265 15.4832 10C15.4831 7.80301 13.6961 6.01562 11.4994 6.01562ZM11.4994 12.0046C10.3942 12.0046 9.49509 11.1054 9.49509 10C9.49509 8.89463 10.3942 7.99537 11.4994 7.99537C12.6046 7.99537 13.5037 8.89465 13.5037 10C13.5037 11.1054 12.6046 12.0046 11.4994 12.0046Z" fill="white"/>
</g>
<defs>
<clipPath id="clip0_2878_22845">
<rect width="11" height="11.0017" fill="white" transform="translate(6 6.01562)"/>
</clipPath>
</defs>
</svg>
