<svg width="23" height="24" viewBox="0 0 23 24" fill="none" xmlns="http://www.w3.org/2000/svg">
<ellipse cx="11.5" cy="12.4095" rx="11.5" ry="11.5018" fill="#CA0100"/>
<g clip-path="url(#clip0_2880_22846)">
<path d="M15.7982 15.0214L14.4083 13.6313C14.1315 13.3556 13.673 13.364 13.3865 13.6506L12.6863 14.3507C12.642 14.3263 12.5963 14.3008 12.5481 14.2738C12.1059 14.0288 11.5007 13.693 10.8638 13.0556C10.2251 12.417 9.88894 11.8108 9.64317 11.3683C9.61724 11.3214 9.59239 11.2762 9.56785 11.2333L10.0378 10.7641L10.2689 10.5327C10.5558 10.2457 10.5637 9.78739 10.2875 9.51085L8.89761 8.12064C8.62141 7.84449 8.16274 7.85287 7.87582 8.13987L7.48409 8.53385L7.4948 8.54447C7.36345 8.71207 7.25369 8.90538 7.17201 9.11383C7.09671 9.31225 7.04983 9.5016 7.0284 9.69133C6.84487 11.2128 7.54015 12.6034 9.42704 14.4903C12.0353 17.0983 14.1372 16.9013 14.2279 16.8917C14.4254 16.8681 14.6147 16.8209 14.807 16.7462C15.0136 16.6655 15.2068 16.5559 15.3743 16.4248L15.3829 16.4324L15.7797 16.0438C16.066 15.7569 16.0743 15.2984 15.7982 15.0214Z" fill="white"/>
</g>
<defs>
<clipPath id="clip0_2880_22846">
<rect width="9" height="9.00138" fill="white" transform="translate(7 7.90869)"/>
</clipPath>
</defs>
</svg>
